<svg xmlns="http://www.w3.org/2000/svg" width="574" height="570" viewBox="0 0 287 285">
  <rect width="287" height="285" fill="#18181b"/>
  <rect x="286" width="1" height="285" fill="#27272a"/>
  <text x="16" y="24" fill="#f4f4f5" font-family="Arial, sans-serif" font-size="13" font-weight="600">PR status icon demo</text>
  <text x="16" y="43" fill="#71717a" font-family="monospace" font-size="10.5">feature/pr-status-demo</text>
  <path d="M16 56.5H271" stroke="#27272a" stroke-width=".6"/>
  <g font-family="Arial, sans-serif" font-size="13">
    <g>
      <rect x="12" y="62" width="259" height="44" rx="7" fill="#18181b"/>
      <text x="44" y="88" fill="#d4d4d8">No pull request</text>
      <text x="224" y="88" fill="#52525b" font-size="10.5">30m ago</text>
    </g>
    <g>
      <rect x="12" y="112" width="259" height="44" rx="7" fill="#18181b"/>
      <g transform="translate(43 128) scale(.5)" fill="none" stroke="#8c8c94" stroke-width="2" stroke-linecap="round" stroke-linejoin="round">
        <circle cx="18" cy="18" r="3"/>
        <circle cx="6" cy="6" r="3"/>
        <path d="M13 6h3a2 2 0 0 1 2 2v7"/>
        <line x1="6" x2="6" y1="9" y2="21"/>
      </g>
      <text x="62" y="138" fill="#d4d4d8">Closed pull request</text>
      <text x="224" y="138" fill="#52525b" font-size="10.5">31m ago</text>
    </g>
    <g>
      <rect x="12" y="162" width="259" height="44" rx="7" fill="#18181b"/>
      <g transform="translate(43 178) scale(.5)" fill="none" stroke="#b8aaf0" stroke-width="2" stroke-linecap="round" stroke-linejoin="round">
        <circle cx="18" cy="18" r="3"/>
        <circle cx="6" cy="6" r="3"/>
        <path d="M13 6h3a2 2 0 0 1 2 2v7"/>
        <line x1="6" x2="6" y1="9" y2="21"/>
      </g>
      <text x="62" y="188" fill="#d4d4d8">Merged pull request</text>
      <text x="224" y="188" fill="#52525b" font-size="10.5">32m ago</text>
    </g>
    <g>
      <rect x="12" y="212" width="259" height="44" rx="7" fill="#18181b"/>
      <g transform="translate(43 228) scale(.5)" fill="none" stroke="#65d9ad" stroke-width="2" stroke-linecap="round" stroke-linejoin="round">
        <circle cx="18" cy="18" r="3"/>
        <circle cx="6" cy="6" r="3"/>
        <path d="M13 6h3a2 2 0 0 1 2 2v7"/>
        <line x1="6" x2="6" y1="9" y2="21"/>
      </g>
      <text x="62" y="238" fill="#d4d4d8">Open pull request</text>
      <text x="224" y="238" fill="#52525b" font-size="10.5">33m ago</text>
    </g>
  </g>
  <text x="16" y="275" fill="#52525b" font-family="Arial, sans-serif" font-size="10">Actual sidebar spacing and state colors</text>
</svg>
